<svg width="24" height="25" viewBox="0 0 24 25" fill="none" xmlns="http://www.w3.org/2000/svg">
<path d="M8.50997 20.4988H8.42997C6.81833 20.4848 5.22999 20.1159 3.77997 19.4187C3.51324 19.2945 3.29363 19.089 3.15327 18.8322C3.01292 18.5754 2.9592 18.2809 2.99997 17.9917C3.04431 17.7005 3.18036 17.4306 3.38868 17.2206C3.59699 17.0107 3.86694 16.8712 4.15997 16.8223C5.05858 16.7035 5.92306 16.4034 6.69997 15.9404C5.35113 14.8953 4.31272 13.5081 3.69479 11.9258C3.07686 10.3434 2.90242 8.62488 3.18997 6.95228C3.22896 6.68734 3.34393 6.43909 3.52122 6.23705C3.6985 6.03502 3.93063 5.88771 4.18997 5.81266C4.44228 5.73414 4.71232 5.73078 4.96654 5.80301C5.22076 5.87524 5.44797 6.01988 5.61997 6.21896C6.20397 6.97783 6.93786 7.61084 7.77687 8.07937C8.61589 8.5479 9.54242 8.84214 10.5 8.94412C10.5457 7.77662 11.052 6.67353 11.91 5.87212C12.3384 5.4656 12.8441 5.14763 13.3978 4.93675C13.9514 4.72587 14.5419 4.62629 15.1348 4.64381C15.7276 4.66134 16.3111 4.79562 16.8511 5.03882C17.391 5.28203 17.8768 5.6293 18.28 6.0604C18.385 6.15243 18.5155 6.21108 18.6546 6.22875C18.7937 6.24642 18.9349 6.2223 19.06 6.1595C19.2984 6.04806 19.5639 6.00611 19.8255 6.03855C20.0871 6.07098 20.3339 6.17646 20.5373 6.34268C20.7407 6.50889 20.8922 6.729 20.9741 6.9773C21.056 7.22561 21.065 7.49188 21 7.74505C20.7693 8.68659 20.3323 9.56625 19.72 10.3216C19.585 13.1406 18.3308 15.7925 16.2309 17.699C14.131 19.6054 11.3556 20.6119 8.50997 20.4988ZM8.50997 18.5169H8.58997C9.75264 18.5565 10.9117 18.367 11.9999 17.9594C13.0881 17.5518 14.0839 16.9342 14.9294 16.1424C15.7749 15.3506 16.4535 14.4003 16.9256 13.3467C17.3978 12.2931 17.6542 11.157 17.68 10.0045C17.6965 9.68859 17.8279 9.38935 18.05 9.16214C18.2939 8.85617 18.5019 8.52371 18.67 8.17117C18.3097 8.17185 17.9534 8.09717 17.6242 7.95202C17.2951 7.80687 17.0006 7.59452 16.76 7.32884C16.5286 7.10147 16.2537 6.92213 15.9515 6.80132C15.6493 6.6805 15.3258 6.62065 15 6.62526C14.6709 6.61682 14.3433 6.67289 14.0362 6.79023C13.729 6.90757 13.4482 7.08387 13.21 7.30903C12.8886 7.61127 12.6529 7.99187 12.5265 8.41273C12.4002 8.8336 12.3876 9.27996 12.49 9.70717L12.75 10.8369L11.58 10.9162C10.3811 11.013 9.17523 10.8505 8.04598 10.4399C6.91673 10.0292 5.89105 9.3802 5.03997 8.53783C5.00347 9.84234 5.33277 11.1313 5.99126 12.2615C6.64976 13.3916 7.61164 14.3186 8.76997 14.9395L9.71997 15.4746L9.08997 16.3665C8.40866 17.2519 7.47515 17.9147 6.40997 18.2691C7.09328 18.4389 7.79554 18.5221 8.49997 18.5169H8.50997Z" fill="#6E7191"/>
</svg>
